<svg xmlns="http://www.w3.org/2000/svg" version="1.1" width="512" height="512" viewBox="0 0 426 426"><g><path fill="#5dffdd" d="m426.667969 213.332031c0 117.820313-95.515625 213.335938-213.335938 213.335938-117.820312 0-213.332031-95.515625-213.332031-213.335938 0-117.820312 95.511719-213.332031 213.332031-213.332031 117.820313 0 213.335938 95.511719 213.335938 213.332031zm0 0" /><path fill="#1e1e1e" d="m202.667969 298.667969c-2.832031-.003907-5.542969 1.121093-7.546875 3.121093-2 2-3.121094 4.714844-3.121094 7.542969v64c-.003906 5.894531 4.773438 10.679688 10.667969 10.679688s10.671875-4.785157 10.664062-10.679688v-64c.003907-2.828125-1.121093-5.542969-3.121093-7.542969s-4.714844-3.125-7.542969-3.121093zm-53.335938-85.335938c.003907-33.5625 25.933594-61.421875 59.410157-63.832031 33.476562-2.414062 63.128906 21.441406 67.945312 54.65625.84375 5.828125 6.25 9.871094 12.082031 9.035156 5.832031-.839844 9.878907-6.246094 9.042969-12.078125-6-41.675781-42.332031-73.113281-84.480469-73.113281-47.105469.050781-85.28125 38.226562-85.332031 85.332031 0 19.90625 7.019531 35.523438 13.207031 49.304688 4.355469 9.695312 8.125 18.0625 8.125 25.363281.007813 5.886719 4.78125 10.65625 10.667969 10.65625s10.660156-4.769531 10.667969-10.65625c0-11.875-4.855469-22.675781-10-34.105469-5.5625-12.40625-11.335938-25.226562-11.335938-40.5625zm106.667969 0c0-23.5625-19.101562-42.664062-42.667969-42.664062-23.5625 0-42.664062 19.101562-42.664062 42.664062 0 5.890625 4.773437 10.667969 10.664062 10.667969s10.667969-4.777344 10.667969-10.667969c0-11.78125 9.550781-21.332031 21.332031-21.332031 11.785157 0 21.335938 9.550781 21.335938 21.332031 0 11.085938-7.398438 16.167969-19.460938 23.554688-10.332031 6.332031-23.207031 14.21875-23.207031 29.78125-.003906 5.894531 4.773438 10.675781 10.667969 10.675781s10.671875-4.78125 10.664062-10.675781c0-3.375 4.917969-6.625 13.023438-11.585938 12.5-7.664062 29.644531-18.15625 29.644531-41.75zm-96 106.667969c-2.828125 0-5.542969 1.121094-7.542969 3.121094-2.003906 2.003906-3.125 4.714844-3.125 7.546875v42.664062c-.003906 5.894531 4.773438 10.679688 10.667969 10.679688s10.671875-4.785157 10.667969-10.679688v-42.664062c0-2.832031-1.121094-5.542969-3.125-7.546875-2-2-4.714844-3.121094-7.542969-3.121094zm-96-106.667969c0-78.40625 61.207031-143.851562 139.394531-149 3.273438-.226562 6.605469-.332031 9.9375-.332031 5.890625 0 10.667969-4.777344 10.667969-10.667969s-4.777344-10.664062-10.667969-10.664062c-3.832031 0-7.625.125-11.375.375-89.3125 5.882812-159.289062 80.675781-159.289062 170.289062 0 27.761719 6.757812 55.101563 19.6875 79.667969 1.851562 3.492188 5.480469 5.675781 9.4375 5.675781 1.734375.003907 3.445312-.421875 4.976562-1.238281 5.210938-2.75 7.207031-9.203125 4.460938-14.417969-11.320313-21.484375-17.234375-45.402343-17.230469-69.6875zm42.667969 0c0-3.695312.1875-7.332031.539062-10.914062 2.121094-20.933594 10.425781-40.765625 23.855469-56.960938 3.746094-4.542969 3.101562-11.265625-1.4375-15.015625-4.539062-3.753906-11.261719-3.121094-15.019531 1.414063-16.117188 19.457031-26.074219 43.277343-28.605469 68.414062-.441406 4.339844-.664062 8.699219-.667969 13.0625 0 30.429688 6.625 45.261719 12.480469 58.355469 4.75 10.613281 8.855469 19.78125 8.855469 37.644531v21.335938c0 5.890625 4.773437 10.664062 10.664062 10.664062s10.667969-4.773437 10.667969-10.664062v-21.335938c0-22.414062-5.4375-34.59375-10.707031-46.351562-5.460938-12.230469-10.625-23.773438-10.625-49.648438zm187.125-150.550781c-5.195313-2.777344-11.65625-.820312-14.4375 4.371094-2.785157 5.191406-.835938 11.652344 4.351562 14.441406 48.632813 25.960938 78.992188 76.613281 78.960938 131.738281v32c0 5.890625 4.773437 10.667969 10.664062 10.667969s10.667969-4.777344 10.667969-10.667969v-32c.042969-62.992187-34.640625-120.878906-90.207031-150.550781zm50.664062 239.011719c-2.5 2.5-24.457031 25.175781-24.457031 50.207031.003906 5.886719 4.78125 10.65625 10.667969 10.65625s10.660156-4.769531 10.664062-10.65625c0-13.761719 13.148438-30.03125 18.230469-35.136719 4.148438-4.171875 4.132812-10.914062-.03125-15.070312s-10.90625-4.15625-15.074219 0zm-131.125-216.460938c-21.445312.003907-42.546875 5.382813-61.375 15.648438-5.164062 2.828125-7.058593 9.3125-4.226562 14.476562 2.828125 5.167969 9.3125 7.0625 14.476562 4.230469 44.96875-24.53125 101.023438-13.644531 133.539063 25.9375 32.515625 39.578125 32.316406 96.679688-.476563 136.03125-17.726562 23.875-17.9375 48-17.9375 49.011719v21.332031c.007813 5.886719 4.78125 10.65625 10.667969 10.65625s10.660156-4.769531 10.667969-10.65625v-21.269531c.941406-13.011719 5.589843-25.476563 13.394531-35.929688 31.539062-38.222656 38.179688-91.214843 17.054688-136.039062-21.128907-44.824219-66.230469-73.425781-115.785157-73.429688zm53.335938 192c-4.316407 0-8.207031-2.601562-9.859375-6.589843-1.648438-3.988282-.734375-8.574219 2.316406-11.628907 5.449219-5.34375 9.957031-11.570312 13.332031-18.414062 2.5625-5.304688 8.9375-7.53125 14.242188-4.96875 5.304687 2.558593 7.527343 8.933593 4.96875 14.238281-4.421875 9.003906-10.320313 17.203125-17.460938 24.25-2 1.996094-4.714843 3.117188-7.539062 3.113281zm-21.335938 85.335938c-2.828125 0-5.542969-1.121094-7.542969-3.125-2-2-3.125-4.714844-3.121093-7.542969v-42.667969c0-5.890625 4.773437-10.664062 10.664062-10.664062s10.667969 4.773437 10.667969 10.664062v42.667969c0 2.828125-1.121094 5.542969-3.121094 7.542969-2.003906 2.003906-4.714844 3.125-7.546875 3.125zm0 0" /></g></svg>
